<svg width="12" height="12" viewBox="0 0 12 12" fill="none" xmlns="http://www.w3.org/2000/svg">
<path d="M4.4 4.105C4.52905 3.73706 4.78424 3.42671 5.12031 3.22899C5.45637 3.03126 5.8516 2.95894 6.23591 3.02485C6.62021 3.09076 6.96876 3.29064 7.21974 3.58904C7.47072 3.88744 7.60792 4.26508 7.607 4.655C7.607 5.755 5.957 6.305 5.957 6.305M5.952 7.325V6.418M5.952 9.273V9.253M11.5 6C11.5 9.03757 9.03757 11.5 6 11.5C2.96243 11.5 0.5 9.03757 0.5 6C0.5 2.96243 2.96243 0.5 6 0.5C9.03757 0.5 11.5 2.96243 11.5 6Z" stroke="#000000" stroke-linecap="round" stroke-linejoin="round"/>
</svg>
